<svg version="1.1" id="Layer_1" xmlns="http://www.w3.org/2000/svg" xmlns:xlink="http://www.w3.org/1999/xlink" x="0px" y="0px"
	 width="100%" viewBox="0 0 830 280" enable-background="new 0 0 830 280" xml:space="preserve">
<path fill="#000000" opacity="1.000000" stroke="none" 
	d="
M831.000000,140.000000 
	C831.000000,186.980972 831.000000,233.961929 831.000000,280.944824 
	C554.333313,280.946716 277.666656,280.946716 1.000000,280.946716 
	C1.000000,249.239624 1.000000,217.585846 1.468657,185.465820 
	C19.871197,184.999557 37.805080,184.999557 56.131653,184.999557 
	C56.131653,164.068680 56.131653,143.662598 56.131653,122.864403 
	C73.932640,122.864403 91.339737,122.864403 108.729813,122.864403 
	C108.729813,108.393341 108.729813,94.322723 108.729813,79.856934 
	C91.056885,79.856934 73.649773,79.856934 56.273205,79.856934 
	C56.273205,69.051041 56.273205,58.646152 56.273205,47.848534 
	C75.950165,47.848534 95.356720,47.848534 115.000046,47.848534 
	C115.000046,35.146038 114.816208,22.835762 115.098122,10.536158 
	C115.199028,6.133555 113.899483,4.884164 109.482460,4.904875 
	C73.322289,5.074426 37.160969,5.000183 1.000000,5.000000 
	C1.000000,3.669315 1.000000,2.338631 1.000000,1.003973 
	C72.022644,1.000000 143.045288,1.000000 214.836441,1.372800 
	C214.431808,2.163848 213.289291,2.741112 212.080444,2.974016 
	C205.281265,4.283978 198.275879,4.884349 191.691772,6.882892 
	C171.220856,13.096634 155.388138,25.563074 144.003952,43.728535 
	C135.986237,56.522179 131.346680,70.639381 130.294830,85.428551 
	C129.486298,96.796730 130.157257,108.574539 132.262131,119.777153 
	C135.786667,138.535568 144.517288,154.890717 160.016251,167.363220 
	C167.736755,174.848495 176.988113,179.239609 186.535065,182.925232 
	C195.946381,186.558502 205.801529,188.362885 216.164291,188.484863 
	C223.184952,188.237289 230.011566,187.731232 236.811111,186.979980 
	C253.205017,185.168732 267.465363,178.034424 279.721497,167.557938 
	C299.305176,150.817963 309.074524,128.717407 310.876038,103.289810 
	C312.023346,87.096184 310.409393,71.098686 304.061493,55.801022 
	C296.346008,37.207729 284.595612,22.323374 266.494080,12.876563 
	C255.491058,7.134312 243.942657,3.458631 231.458954,2.917392 
	C230.613174,2.880723 229.818466,1.666542 229.000000,1.000001 
	C406.355957,1.000000 583.711914,1.000000 761.836426,1.372811 
	C758.684753,2.496796 754.783386,3.370025 750.841003,3.977373 
	C736.111084,6.246604 722.926880,11.990564 712.229797,22.393156 
	C696.224243,37.958042 693.361084,62.811939 702.265808,82.564507 
	C709.418945,98.431870 723.398621,106.476074 738.532959,113.003120 
	C748.387207,117.252998 759.009338,120.060928 766.942810,128.436737 
	C770.591553,138.289474 766.811768,146.182236 757.485718,146.798737 
	C750.367188,147.269287 742.987793,146.720993 735.983887,145.324585 
	C724.941406,143.122986 714.718872,138.498932 705.319336,132.134018 
	C701.899963,129.818649 700.049866,130.815842 700.028687,134.774094 
	C699.954834,148.572128 699.929932,162.371765 700.115417,176.167709 
	C700.132812,177.458633 701.486145,179.408539 702.691406,179.904236 
	C718.793823,186.526123 735.858459,187.934219 753.427002,188.910461 
	C756.573303,188.658249 759.303284,188.397110 762.010681,187.986862 
	C770.617554,186.682648 779.505737,186.284454 787.761475,183.797516 
	C809.294434,177.310959 825.113647,164.701401 829.110352,140.959259 
	C829.180054,140.545197 830.345764,140.315643 831.000000,140.000000 
M627.011780,232.926376 
	C627.011780,243.841629 627.011780,254.756882 627.011780,266.160370 
	C630.249084,265.927704 633.151489,265.215759 635.893555,265.612213 
	C645.905029,267.059753 647.843384,266.107208 651.795044,256.717224 
	C653.455505,252.516052 652.238892,246.500488 649.028259,243.528458 
	C644.466492,239.305679 639.764954,240.522919 634.722778,243.951294 
	C634.722778,238.887238 634.722778,234.475998 634.722778,229.458633 
	C632.177612,231.467972 628.518494,227.403961 627.011780,232.926376 
M565.853638,185.971176 
	C567.153259,186.096481 568.454956,186.203506 569.752136,186.350082 
	C577.522705,187.228134 585.297241,188.847565 593.060486,188.793182 
	C600.805115,188.738953 608.581604,187.268417 616.268066,185.969009 
	C642.452271,181.542526 659.156189,166.244568 667.432800,141.181702 
	C671.739441,128.140549 672.494141,114.567932 672.786560,101.164169 
	C673.458618,70.362030 673.038269,39.534988 672.858643,8.719228 
	C672.851379,7.473863 670.792908,5.175756 669.666687,5.161017 
	C652.230591,4.932833 634.790527,5.001611 617.000488,5.001611 
	C617.000488,7.061732 617.000488,8.688318 617.000488,10.314905 
	C617.000488,42.297745 617.101562,74.281189 616.910156,106.262886 
	C616.874390,112.242790 616.308350,118.374008 614.880127,124.162292 
	C610.488403,141.961151 591.691956,145.661728 579.651978,137.069717 
	C571.752625,131.432617 569.203186,122.444283 569.121582,113.314896 
	C568.816528,79.169273 568.919434,45.018879 569.096436,10.871449 
	C569.119690,6.377045 568.131226,4.779462 563.321228,4.883584 
	C548.502747,5.204360 533.669800,5.171879 518.849487,4.897805 
	C514.309265,4.813841 512.852722,5.937365 512.888184,10.700869 
	C513.110474,40.516548 512.620544,70.341873 513.182983,100.148582 
	C513.415710,112.480392 514.949463,124.907036 517.197632,137.048691 
	C519.564636,149.831604 526.152588,160.958572 535.601501,169.919662 
	C543.883850,177.774414 553.951538,182.819107 565.853638,185.971176 
M449.031494,100.338600 
	C445.809021,96.266899 446.760956,92.412216 449.217804,88.287819 
	C454.810913,78.898582 460.143188,69.354088 465.592834,59.879246 
	C471.920837,48.877262 478.315826,37.913387 484.576080,26.873072 
	C488.579651,19.812590 492.391846,12.643597 496.510071,5.120938 
	C475.552887,5.120938 455.412811,5.120938 435.033722,5.120938 
	C427.370148,26.495459 415.441986,46.171162 410.365387,68.479080 
	C410.063171,67.010094 409.908081,65.381470 409.391327,63.877079 
	C402.942017,45.102276 396.490662,26.327526 389.833008,7.626404 
	C389.410583,6.439898 387.285431,5.123477 385.941711,5.111905 
	C366.951752,4.948365 347.959290,5.084689 328.969116,4.933673 
	C324.871399,4.901088 324.596741,7.185399 325.096924,10.035660 
	C325.364075,11.557875 326.344391,12.979867 327.116791,14.384418 
	C332.072052,23.394993 337.069336,32.382442 342.032959,41.388428 
	C350.337860,56.456783 358.588593,71.555183 366.944824,86.594978 
	C370.005402,92.103561 372.678680,97.379379 367.070496,103.030655 
	C365.424805,104.689003 364.585541,107.138763 363.337769,109.202278 
	C351.111603,129.421371 338.853882,149.621475 326.662445,169.861465 
	C323.807007,174.602005 321.167847,179.472839 318.021423,185.000031 
	C337.206757,185.000031 355.194946,184.627884 373.154358,185.185211 
	C380.227753,185.404739 384.236511,184.003265 386.924225,176.778244 
	C392.222900,162.534546 398.793335,148.768097 404.615326,134.712143 
	C406.150269,131.006424 406.872284,126.963989 407.816681,123.611862 
	C410.078979,129.805405 411.993011,136.101929 414.639069,142.074097 
	C420.485077,155.268356 426.921448,168.204514 432.592010,181.470398 
	C433.850830,184.415283 435.051453,185.054565 437.822601,185.042801 
	C456.980194,184.961411 476.138306,185.003647 495.296234,184.987122 
	C496.174438,184.986359 497.052521,184.803146 498.462952,184.645386 
	C497.031952,182.167389 495.921814,180.240860 494.807861,178.316559 
	C486.196472,163.441299 477.637421,148.535416 468.954865,133.701828 
	C462.538788,122.740417 455.961426,111.873436 449.031494,100.338600 
M814.498718,259.994568 
	C817.246704,264.897339 820.788513,267.982086 826.719482,265.426361 
	C826.719482,254.309525 826.719482,243.247925 826.719482,232.281250 
	C824.027832,232.281250 821.624451,232.281250 818.845581,232.281250 
	C818.845581,239.211823 818.845581,245.870392 818.845581,253.065765 
	C815.213684,247.410629 811.987122,242.304779 808.676941,237.253723 
	C804.791504,231.324768 803.751038,230.976456 796.297058,232.633545 
	C796.297058,243.728836 796.297058,254.790543 796.297058,265.700745 
	C799.005432,265.700745 801.409912,265.700745 804.193604,265.700745 
	C804.193604,258.427551 804.193604,251.446518 804.193604,243.967590 
	C807.708984,249.476669 810.873230,254.435425 814.498718,259.994568 
M757.000061,262.332245 
	C757.000061,252.240372 757.000061,242.148514 757.000061,232.347137 
	C753.907227,232.347137 751.501831,232.347137 748.711914,232.347137 
	C748.711914,236.770004 748.711914,240.845520 748.711914,244.651764 
	C744.227783,244.651764 740.153137,244.651764 735.701233,244.651764 
	C735.701233,240.219299 735.701233,236.137039 735.701233,232.169800 
	C732.684509,232.169800 730.060486,232.169800 727.344238,232.169800 
	C727.344238,243.541382 727.344238,254.740585 727.344238,265.646606 
	C730.436462,265.646606 733.179749,265.646606 736.303772,265.646606 
	C736.303772,261.216370 736.303772,257.141052 736.303772,253.354736 
	C740.786133,253.354736 744.861084,253.354736 749.312744,253.354736 
	C749.312744,257.791656 749.312744,261.871338 749.312744,265.996429 
	C751.536560,265.996429 753.427673,266.261566 755.173767,265.873749 
	C755.935669,265.704529 756.400391,264.197327 757.000061,262.332245 
M696.000183,254.482727 
	C696.000183,258.258270 696.000183,262.033813 696.000183,265.719727 
	C699.306152,265.719727 702.046387,265.719727 705.182373,265.719727 
	C705.182373,261.434448 705.182373,257.418640 705.182373,252.625229 
	C710.740417,258.748627 712.031921,269.592438 724.256775,265.287720 
	C721.593567,261.454163 719.149658,257.367615 716.133606,253.759384 
	C713.282043,250.347977 712.499512,247.520264 715.595337,243.757675 
	C718.142273,240.662094 719.985657,236.987656 722.110046,233.618561 
	C711.135925,229.980072 710.433777,240.510468 704.790039,245.283340 
	C704.790039,240.375656 704.790039,236.290573 704.790039,232.281494 
	C701.700378,232.281494 698.961975,232.281494 696.000183,232.281494 
	C696.000183,239.536407 696.000183,246.512711 696.000183,254.482727 
M770.027527,236.275879 
	C768.943237,231.322983 765.242554,233.389954 761.585083,232.951401 
	C762.114807,235.161575 762.421814,236.851776 762.927490,238.480301 
	C764.921143,244.901215 766.969849,251.305115 769.012146,257.710846 
	C771.729126,266.232880 771.734802,266.233185 780.604736,265.976196 
	C780.924316,265.966949 781.240356,265.835358 781.554382,265.749664 
	C784.535706,257.158936 787.611145,248.598907 790.431335,239.955597 
	C791.126038,237.826385 790.989319,235.425919 791.192017,233.546753 
	C785.372070,231.737564 783.279053,234.407959 782.121643,238.572861 
	C780.582520,244.111771 778.965271,249.628983 777.126099,256.046722 
	C774.644897,248.933228 772.558716,242.952271 770.027527,236.275879 
M654.036011,244.409103 
	C656.455078,250.510712 658.664551,256.708313 661.395508,262.666992 
	C662.499023,265.074738 663.498840,267.281647 661.280457,269.035217 
	C659.685364,270.296112 657.337280,270.604431 654.291504,271.714294 
	C654.291504,272.536255 653.474304,275.433502 654.491516,276.399994 
	C655.865601,277.705536 659.064453,278.491302 660.736938,277.771851 
	C663.648621,276.519379 667.142212,274.477905 668.367065,271.830383 
	C672.785339,262.279999 676.359436,252.339035 680.296753,242.433838 
	C671.759766,241.419006 671.830627,241.437195 669.941833,248.799744 
	C669.298584,251.307343 668.199951,253.698105 666.955017,257.114838 
	C665.215332,251.351593 663.812805,246.705322 662.394897,242.007980 
	C659.614441,242.007980 656.954529,241.985580 654.298401,242.075684 
	C654.168518,242.080093 654.072083,243.069901 654.036011,244.409103 
z"/>
<path fill="#FFFFFF" opacity="1.000000" stroke="none" 
	d="
M228.535355,1.000001 
	C229.818466,1.666542 230.613174,2.880723 231.458954,2.917392 
	C243.942657,3.458631 255.491058,7.134312 266.494080,12.876563 
	C284.595612,22.323374 296.346008,37.207729 304.061493,55.801022 
	C310.409393,71.098686 312.023346,87.096184 310.876038,103.289810 
	C309.074524,128.717407 299.305176,150.817963 279.721497,167.557938 
	C267.465363,178.034424 253.205017,185.168732 236.811111,186.979980 
	C230.011566,187.731232 223.184952,188.237289 216.116180,188.100372 
	C213.670044,186.563904 211.504852,185.197449 209.282349,185.096817 
	C196.794800,184.531448 185.333847,181.026001 174.661697,174.480438 
	C169.977753,171.607635 164.825409,169.498489 159.885757,167.042603 
	C144.517288,154.890717 135.786667,138.535568 132.262131,119.777153 
	C130.157257,108.574539 129.486298,96.796730 130.294830,85.428551 
	C131.346680,70.639381 135.986237,56.522179 144.003952,43.728535 
	C155.388138,25.563074 171.220856,13.096634 191.691772,6.882892 
	C198.275879,4.884349 205.281265,4.283978 212.080444,2.974016 
	C213.289291,2.741112 214.431808,2.163848 215.302475,1.372800 
	C219.356903,1.000000 223.713806,1.000000 228.535355,1.000001 
M228.645233,48.344311 
	C220.526138,43.771439 213.035568,46.876511 205.870483,50.646023 
	C202.937180,52.189217 198.678009,53.248341 198.929153,58.585224 
	C198.743408,58.890575 198.471832,59.042912 197.371582,59.029255 
	C196.142136,59.984795 194.281433,60.690773 193.788544,61.937496 
	C191.142410,68.630783 188.233994,75.311821 186.538574,82.270554 
	C182.974121,96.900520 185.473267,111.121971 191.181076,124.842430 
	C191.575394,125.790283 193.109955,126.263794 194.697479,127.170967 
	C194.836060,127.766296 194.974640,128.361633 194.591797,129.314850 
	C194.629700,129.916901 194.443573,130.674438 194.737900,131.098526 
	C205.318588,146.343246 228.926819,146.827362 239.950363,137.079559 
	C244.593216,132.973999 248.012726,126.992531 250.675217,121.254509 
	C254.744751,112.484108 256.796326,102.881943 255.713333,93.197342 
	C254.807251,85.094795 252.698303,77.106781 250.822708,69.138496 
	C249.095993,61.802769 243.843399,56.840134 238.287796,52.289494 
	C237.395981,51.559006 235.581818,51.954521 233.726974,51.700649 
	C233.191071,51.411411 232.655182,51.122169 231.873245,50.066700 
	C230.915497,49.711132 229.957748,49.355568 228.645233,48.344311 
z"/>
<path fill="#FFFFFF" opacity="1.000000" stroke="none" 
	d="
M831.000000,139.532059 
	C830.345764,140.315643 829.180054,140.545197 829.110352,140.959259 
	C825.113647,164.701401 809.294434,177.310959 787.761475,183.797516 
	C779.505737,186.284454 770.617554,186.682648 762.010681,187.986862 
	C759.303284,188.397110 756.573303,188.658249 753.343384,188.549774 
	C750.883850,187.408829 748.949097,186.143646 746.982971,186.092834 
	C733.051880,185.732864 719.439514,183.888901 706.237061,179.135437 
	C703.145081,178.022171 701.965576,176.532776 701.980042,173.464539 
	C702.033264,162.161163 701.950073,150.857025 702.026123,139.553909 
	C702.056824,134.986526 703.680298,134.053482 707.476990,136.282593 
	C722.483215,145.092896 738.525513,150.243210 756.050537,148.799057 
	C759.993652,148.474106 764.342163,146.349060 767.418335,143.761749 
	C772.309082,139.648132 771.580078,131.100540 766.885437,128.042236 
	C759.009338,120.060928 748.387207,117.252998 738.532959,113.003120 
	C723.398621,106.476074 709.418945,98.431870 702.265808,82.564507 
	C693.361084,62.811939 696.224243,37.958042 712.229797,22.393156 
	C722.926880,11.990564 736.111084,6.246604 750.841003,3.977373 
	C754.783386,3.370025 758.684753,2.496796 762.302490,1.372811 
	C767.688049,1.000000 773.376038,1.000000 779.229004,1.379474 
	C784.653931,2.506063 789.937317,3.119167 795.168640,4.030535 
	C803.823669,5.538350 812.445190,7.238394 820.645325,8.775788 
	C820.645325,24.819992 820.645325,39.853275 820.645325,54.848911 
	C819.962219,54.916393 819.573730,55.078426 819.313354,54.959663 
	C817.998352,54.359936 816.744202,53.623524 815.419067,53.049709 
	C800.799866,46.719311 785.883606,41.613926 769.599548,44.051514 
	C758.919250,45.650280 753.483704,51.436733 757.329712,59.873074 
	C759.075134,63.701675 763.804810,66.744064 767.854980,68.840759 
	C780.357178,75.312920 793.894714,79.594101 805.620544,87.814423 
	C817.553711,96.180145 826.930237,105.935570 829.111755,121.032585 
	C829.170227,121.437553 830.345520,121.681152 831.000000,122.000000 
	C831.000000,127.688042 831.000000,133.376083 831.000000,139.532059 
z"/>
<path fill="#FFFFFF" opacity="1.000000" stroke="none" 
	d="
M1.000000,5.468657 
	C37.160969,5.000183 73.322289,5.074426 109.482460,4.904875 
	C113.899483,4.884164 115.199028,6.133555 115.098122,10.536158 
	C114.816208,22.835762 115.000046,35.146038 115.000046,47.848534 
	C95.356720,47.848534 75.950165,47.848534 56.273205,47.848534 
	C56.273205,58.646152 56.273205,69.051041 56.273205,79.856934 
	C73.649773,79.856934 91.056885,79.856934 108.729813,79.856934 
	C108.729813,94.322723 108.729813,108.393341 108.729813,122.864403 
	C91.339737,122.864403 73.932640,122.864403 56.131653,122.864403 
	C56.131653,143.662598 56.131653,164.068680 56.131653,184.999557 
	C37.805080,184.999557 19.871197,184.999557 1.468657,184.999786 
	C1.000000,125.312439 1.000000,65.624878 1.000000,5.468657 
z"/>
<path fill="#000000" opacity="1.000000" stroke="none" 
	d="
M831.000000,121.531342 
	C830.345520,121.681152 829.170227,121.437553 829.111755,121.032585 
	C826.930237,105.935570 817.553711,96.180145 805.620544,87.814423 
	C793.894714,79.594101 780.357178,75.312920 767.854980,68.840759 
	C763.804810,66.744064 759.075134,63.701675 757.329712,59.873074 
	C753.483704,51.436733 758.919250,45.650280 769.599548,44.051514 
	C785.883606,41.613926 800.799866,46.719311 815.419067,53.049709 
	C816.744202,53.623524 817.998352,54.359936 819.313354,54.959663 
	C819.573730,55.078426 819.962219,54.916393 820.645325,54.848911 
	C820.645325,39.853275 820.645325,24.819992 820.645325,8.775788 
	C812.445190,7.238394 803.823669,5.538350 795.168640,4.030535 
	C789.937317,3.119167 784.653931,2.506063 779.697021,1.379474 
	C796.956665,1.000000 813.913269,1.000000 831.000000,1.000000 
	C831.000000,41.020805 831.000000,81.041748 831.000000,121.531342 
z"/>
<path fill="#FFFFFF" opacity="1.000000" stroke="none" 
	d="
M565.466675,185.785950 
	C553.951538,182.819107 543.883850,177.774414 535.601501,169.919662 
	C526.152588,160.958572 519.564636,149.831604 517.197632,137.048691 
	C514.949463,124.907036 513.415710,112.480392 513.182983,100.148582 
	C512.620544,70.341873 513.110474,40.516548 512.888184,10.700869 
	C512.852722,5.937365 514.309265,4.813841 518.849487,4.897805 
	C533.669800,5.171879 548.502747,5.204360 563.321228,4.883584 
	C568.131226,4.779462 569.119690,6.377045 569.096436,10.871449 
	C568.919434,45.018879 568.816528,79.169273 569.121582,113.314896 
	C569.203186,122.444283 571.752625,131.432617 579.651978,137.069717 
	C591.691956,145.661728 610.488403,141.961151 614.880127,124.162292 
	C616.308350,118.374008 616.874390,112.242790 616.910156,106.262886 
	C617.101562,74.281189 617.000488,42.297745 617.000488,10.314905 
	C617.000488,8.688318 617.000488,7.061732 617.000488,5.001611 
	C634.790527,5.001611 652.230591,4.932833 669.666687,5.161017 
	C670.792908,5.175756 672.851379,7.473863 672.858643,8.719228 
	C673.038269,39.534988 673.458618,70.362030 672.786560,101.164169 
	C672.494141,114.567932 671.739441,128.140549 667.432800,141.181702 
	C659.156189,166.244568 642.452271,181.542526 616.268066,185.969009 
	C608.581604,187.268417 600.805115,188.738953 593.060486,188.793182 
	C585.297241,188.847565 577.522705,187.228134 569.752136,186.350082 
	C568.454956,186.203506 567.153259,186.096481 565.466675,185.785950 
z"/>
<path fill="#FFFFFF" opacity="1.000000" stroke="none" 
	d="
M449.243713,100.651489 
	C455.961426,111.873436 462.538788,122.740417 468.954865,133.701828 
	C477.637421,148.535416 486.196472,163.441299 494.807861,178.316559 
	C495.921814,180.240860 497.031952,182.167389 498.462952,184.645386 
	C497.052521,184.803146 496.174438,184.986359 495.296234,184.987122 
	C476.138306,185.003647 456.980194,184.961411 437.822601,185.042801 
	C435.051453,185.054565 433.850830,184.415283 432.592010,181.470398 
	C426.921448,168.204514 420.485077,155.268356 414.639069,142.074097 
	C411.993011,136.101929 410.078979,129.805405 407.816681,123.611862 
	C406.872284,126.963989 406.150269,131.006424 404.615326,134.712143 
	C398.793335,148.768097 392.222900,162.534546 386.924225,176.778244 
	C384.236511,184.003265 380.227753,185.404739 373.154358,185.185211 
	C355.194946,184.627884 337.206757,185.000031 318.021423,185.000031 
	C321.167847,179.472839 323.807007,174.602005 326.662445,169.861465 
	C338.853882,149.621475 351.111603,129.421371 363.337769,109.202278 
	C364.585541,107.138763 365.424805,104.689003 367.070496,103.030655 
	C372.678680,97.379379 370.005402,92.103561 366.944824,86.594978 
	C358.588593,71.555183 350.337860,56.456783 342.032959,41.388428 
	C337.069336,32.382442 332.072052,23.394993 327.116791,14.384418 
	C326.344391,12.979867 325.364075,11.557875 325.096924,10.035660 
	C324.596741,7.185399 324.871399,4.901088 328.969116,4.933673 
	C347.959290,5.084689 366.951752,4.948365 385.941711,5.111905 
	C387.285431,5.123477 389.410583,6.439898 389.833008,7.626404 
	C396.490662,26.327526 402.942017,45.102276 409.391327,63.877079 
	C409.908081,65.381470 410.063171,67.010094 410.365387,68.479080 
	C415.441986,46.171162 427.370148,26.495459 435.033722,5.120938 
	C455.412811,5.120938 475.552887,5.120938 496.510071,5.120938 
	C492.391846,12.643597 488.579651,19.812590 484.576080,26.873072 
	C478.315826,37.913387 471.920837,48.877262 465.592834,59.879246 
	C460.143188,69.354088 454.810913,78.898582 449.217804,88.287819 
	C446.760956,92.412216 445.809021,96.266899 449.243713,100.651489 
z"/>
<path fill="#FFFFFF" opacity="1.000000" stroke="none" 
	d="
M814.268066,259.694397 
	C810.873230,254.435425 807.708984,249.476669 804.193604,243.967590 
	C804.193604,251.446518 804.193604,258.427551 804.193604,265.700745 
	C801.409912,265.700745 799.005432,265.700745 796.297058,265.700745 
	C796.297058,254.790543 796.297058,243.728836 796.297058,232.633545 
	C803.751038,230.976456 804.791504,231.324768 808.676941,237.253723 
	C811.987122,242.304779 815.213684,247.410629 818.845581,253.065765 
	C818.845581,245.870392 818.845581,239.211823 818.845581,232.281250 
	C821.624451,232.281250 824.027832,232.281250 826.719482,232.281250 
	C826.719482,243.247925 826.719482,254.309525 826.719482,265.426361 
	C820.788513,267.982086 817.246704,264.897339 814.268066,259.694397 
z"/>
<path fill="#FFFFFF" opacity="1.000000" stroke="none" 
	d="
M757.000000,262.815002 
	C756.400391,264.197327 755.935669,265.704529 755.173767,265.873749 
	C753.427673,266.261566 751.536560,265.996429 749.312744,265.996429 
	C749.312744,261.871338 749.312744,257.791656 749.312744,253.354736 
	C744.861084,253.354736 740.786133,253.354736 736.303772,253.354736 
	C736.303772,257.141052 736.303772,261.216370 736.303772,265.646606 
	C733.179749,265.646606 730.436462,265.646606 727.344238,265.646606 
	C727.344238,254.740585 727.344238,243.541382 727.344238,232.169800 
	C730.060486,232.169800 732.684509,232.169800 735.701233,232.169800 
	C735.701233,236.137039 735.701233,240.219299 735.701233,244.651764 
	C740.153137,244.651764 744.227783,244.651764 748.711914,244.651764 
	C748.711914,240.845520 748.711914,236.770004 748.711914,232.347137 
	C751.501831,232.347137 753.907227,232.347137 757.000061,232.347137 
	C757.000061,242.148514 757.000061,252.240372 757.000000,262.815002 
z"/>
<path fill="#FFFFFF" opacity="1.000000" stroke="none" 
	d="
M696.000183,253.985870 
	C696.000183,246.512711 696.000183,239.536407 696.000183,232.281494 
	C698.961975,232.281494 701.700378,232.281494 704.790039,232.281494 
	C704.790039,236.290573 704.790039,240.375656 704.790039,245.283340 
	C710.433777,240.510468 711.135925,229.980072 722.110046,233.618561 
	C719.985657,236.987656 718.142273,240.662094 715.595337,243.757675 
	C712.499512,247.520264 713.282043,250.347977 716.133606,253.759384 
	C719.149658,257.367615 721.593567,261.454163 724.256775,265.287720 
	C712.031921,269.592438 710.740417,258.748627 705.182373,252.625229 
	C705.182373,257.418640 705.182373,261.434448 705.182373,265.719727 
	C702.046387,265.719727 699.306152,265.719727 696.000183,265.719727 
	C696.000183,262.033813 696.000183,258.258270 696.000183,253.985870 
z"/>
<path fill="#FFFFFF" opacity="1.000000" stroke="none" 
	d="
M770.250000,236.623596 
	C772.558716,242.952271 774.644897,248.933228 777.126099,256.046722 
	C778.965271,249.628983 780.582520,244.111771 782.121643,238.572861 
	C783.279053,234.407959 785.372070,231.737564 791.192017,233.546753 
	C790.989319,235.425919 791.126038,237.826385 790.431335,239.955597 
	C787.611145,248.598907 784.535706,257.158936 781.556152,265.755219 
	C781.240356,265.835358 780.924316,265.966949 780.604736,265.976196 
	C771.734802,266.233185 771.729126,266.232880 769.012146,257.710846 
	C766.969849,251.305115 764.921143,244.901215 762.927490,238.480301 
	C762.421814,236.851776 762.114807,235.161575 761.585083,232.951401 
	C765.242554,233.389954 768.943237,231.322983 770.250000,236.623596 
z"/>
<path fill="#FFFFFF" opacity="1.000000" stroke="none" 
	d="
M653.998047,244.004974 
	C654.072083,243.069901 654.168518,242.080093 654.298401,242.075684 
	C656.954529,241.985580 659.614441,242.007980 662.394897,242.007980 
	C663.812805,246.705322 665.215332,251.351593 666.955017,257.114838 
	C668.199951,253.698105 669.298584,251.307343 669.941833,248.799744 
	C671.830627,241.437195 671.759766,241.419006 680.296753,242.433838 
	C676.359436,252.339035 672.785339,262.279999 668.367065,271.830383 
	C667.142212,274.477905 663.648621,276.519379 660.736938,277.771851 
	C659.064453,278.491302 655.865601,277.705536 654.491516,276.399994 
	C653.474304,275.433502 654.291504,272.536255 654.291504,271.714294 
	C657.337280,270.604431 659.685364,270.296112 661.280457,269.035217 
	C663.498840,267.281647 662.499023,265.074738 661.395508,262.666992 
	C658.664551,256.708313 656.455078,250.510712 653.998047,244.004974 
z"/>
<path fill="#FFFFFF" opacity="1.000000" stroke="none" 
	d="
M651.113647,257.042816 
	C647.843384,266.107208 645.905029,267.059753 635.893555,265.612213 
	C633.151489,265.215759 630.249084,265.927704 627.011780,266.160370 
	C627.011780,254.756882 627.011780,243.841629 627.479370,232.464188 
	C631.437561,231.935242 632.760315,233.736115 633.072388,237.128708 
	C633.470825,241.458694 634.410156,245.738892 635.062317,250.475067 
	C635.005554,252.400024 634.521118,254.129349 635.113708,255.324539 
	C635.985535,257.082581 637.518921,259.554993 638.968506,259.696655 
	C640.477722,259.844177 643.466858,257.707367 643.599792,256.352509 
	C643.861511,253.686493 642.594177,250.870377 641.918518,247.764130 
	C640.718994,246.554199 639.560425,245.696487 638.281555,244.749741 
	C643.541809,241.917511 648.239380,243.585968 649.732422,248.784668 
	C650.497803,251.449783 650.672180,254.284668 651.113647,257.042816 
z"/>
<path fill="#FFFFFF" opacity="1.000000" stroke="none" 
	d="
M766.942810,128.436737 
	C771.580078,131.100540 772.309082,139.648132 767.418335,143.761749 
	C764.342163,146.349060 759.993652,148.474106 756.050537,148.799057 
	C738.525513,150.243210 722.483215,145.092896 707.476990,136.282593 
	C703.680298,134.053482 702.056824,134.986526 702.026123,139.553909 
	C701.950073,150.857025 702.033264,162.161163 701.980042,173.464539 
	C701.965576,176.532776 703.145081,178.022171 706.237061,179.135437 
	C719.439514,183.888901 733.051880,185.732864 746.982971,186.092834 
	C748.949097,186.143646 750.883850,187.408829 752.916748,188.472626 
	C735.858459,187.934219 718.793823,186.526123 702.691406,179.904236 
	C701.486145,179.408539 700.132812,177.458633 700.115417,176.167709 
	C699.929932,162.371765 699.954834,148.572128 700.028687,134.774094 
	C700.049866,130.815842 701.899963,129.818649 705.319336,132.134018 
	C714.718872,138.498932 724.941406,143.122986 735.983887,145.324585 
	C742.987793,146.720993 750.367188,147.269287 757.485718,146.798737 
	C766.811768,146.182236 770.591553,138.289474 766.942810,128.436737 
z"/>
<path fill="#FFFFFF" opacity="1.000000" stroke="none" 
	d="
M160.016251,167.363220 
	C164.825409,169.498489 169.977753,171.607635 174.661697,174.480438 
	C185.333847,181.026001 196.794800,184.531448 209.282349,185.096817 
	C211.504852,185.197449 213.670044,186.563904 215.909821,187.730377 
	C205.801529,188.362885 195.946381,186.558502 186.535065,182.925232 
	C176.988113,179.239609 167.736755,174.848495 160.016251,167.363220 
z"/>
<path fill="#FFFFFF" opacity="1.000000" stroke="none" 
	d="
M651.454346,256.880005 
	C650.672180,254.284668 650.497803,251.449783 649.732422,248.784668 
	C648.239380,243.585968 643.541809,241.917511 638.281555,244.749741 
	C639.560425,245.696487 640.718994,246.554199 641.531494,247.710266 
	C639.162354,248.685944 637.139343,249.363251 635.116333,250.040558 
	C634.410156,245.738892 633.470825,241.458694 633.072388,237.128708 
	C632.760315,233.736115 631.437561,231.935242 627.556763,232.001251 
	C628.518494,227.403961 632.177612,231.467972 634.722778,229.458633 
	C634.722778,234.475998 634.722778,238.887238 634.722778,243.951294 
	C639.764954,240.522919 644.466492,239.305679 649.028259,243.528458 
	C652.238892,246.500488 653.455505,252.516052 651.454346,256.880005 
z"/>
<path fill="#000000" opacity="1.000000" stroke="none" 
	d="
M198.114441,59.042229 
	C198.471832,59.042912 198.743408,58.890575 199.309601,58.216484 
	C204.261047,54.046951 208.865723,50.251236 215.201584,50.019432 
	C219.797318,49.851292 224.400528,49.887978 229.276047,49.940620 
	C230.407547,50.309589 231.263412,50.571262 232.119278,50.832932 
	C232.655182,51.122169 233.191071,51.411411 234.240326,51.947388 
	C243.012299,57.648361 247.758148,65.528839 249.953384,74.954994 
	C251.012451,79.502487 251.219467,84.241196 252.051514,88.850143 
	C254.417252,101.954346 252.488419,114.440773 245.927612,125.918365 
	C237.949402,139.875610 225.479538,144.437485 210.096130,139.266083 
	C204.571014,137.408722 200.077530,132.482559 195.113220,128.956955 
	C194.974640,128.361633 194.836060,127.766296 194.348831,126.673233 
	C193.434555,124.357986 192.942474,122.513672 192.291718,120.727180 
	C186.734100,105.470184 186.299866,89.994019 191.028946,74.547951 
	C192.678192,69.161201 195.712616,64.198555 198.114441,59.042229 
z"/>
<path fill="#FFFFFF" opacity="1.000000" stroke="none" 
	d="
M194.852509,129.135895 
	C200.077530,132.482559 204.571014,137.408722 210.096130,139.266083 
	C225.479538,144.437485 237.949402,139.875610 245.927612,125.918365 
	C252.488419,114.440773 254.417252,101.954346 252.051514,88.850143 
	C251.219467,84.241196 251.012451,79.502487 249.953384,74.954994 
	C247.758148,65.528839 243.012299,57.648361 234.473877,52.011818 
	C235.581818,51.954521 237.395981,51.559006 238.287796,52.289494 
	C243.843399,56.840134 249.095993,61.802769 250.822708,69.138496 
	C252.698303,77.106781 254.807251,85.094795 255.713333,93.197342 
	C256.796326,102.881943 254.744751,112.484108 250.675217,121.254509 
	C248.012726,126.992531 244.593216,132.973999 239.950363,137.079559 
	C228.926819,146.827362 205.318588,146.343246 194.737900,131.098526 
	C194.443573,130.674438 194.629700,129.916901 194.852509,129.135895 
z"/>
<path fill="#FFFFFF" opacity="1.000000" stroke="none" 
	d="
M197.743011,59.035744 
	C195.712616,64.198555 192.678192,69.161201 191.028946,74.547951 
	C186.299866,89.994019 186.734100,105.470184 192.291718,120.727180 
	C192.942474,122.513672 193.434555,124.357986 194.057220,126.566689 
	C193.109955,126.263794 191.575394,125.790283 191.181076,124.842430 
	C185.473267,111.121971 182.974121,96.900520 186.538574,82.270554 
	C188.233994,75.311821 191.142410,68.630783 193.788544,61.937496 
	C194.281433,60.690773 196.142136,59.984795 197.743011,59.035744 
z"/>
<path fill="#FFFFFF" opacity="1.000000" stroke="none" 
	d="
M229.000412,49.833328 
	C224.400528,49.887978 219.797318,49.851292 215.201584,50.019432 
	C208.865723,50.251236 204.261047,54.046951 199.366577,57.980644 
	C198.678009,53.248341 202.937180,52.189217 205.870483,50.646023 
	C213.035568,46.876511 220.526138,43.771439 228.822632,48.880486 
	C229.000046,49.416664 229.000412,49.833328 229.000412,49.833328 
z"/>
<path fill="#FFFFFF" opacity="1.000000" stroke="none" 
	d="
M229.276047,49.940620 
	C229.000412,49.833328 229.000046,49.416664 229.000031,49.208336 
	C229.957748,49.355568 230.915497,49.711132 231.996262,50.449818 
	C231.263412,50.571262 230.407547,50.309589 229.276047,49.940620 
z"/>
<path fill="#000000" opacity="1.000000" stroke="none" 
	d="
M635.062317,250.475067 
	C637.139343,249.363251 639.162354,248.685944 641.572388,248.062500 
	C642.594177,250.870377 643.861511,253.686493 643.599792,256.352509 
	C643.466858,257.707367 640.477722,259.844177 638.968506,259.696655 
	C637.518921,259.554993 635.985535,257.082581 635.113708,255.324539 
	C634.521118,254.129349 635.005554,252.400024 635.062317,250.475067 
z"/>
</svg>